<svg width="38" height="38" viewBox="0 0 38 38" fill="none" xmlns="http://www.w3.org/2000/svg">
<path d="M12.28 3H25.72C30.84 3 35 7.16 35 12.28V25.72C35 28.1812 34.0223 30.5416 32.282 32.282C30.5416 34.0223 28.1812 35 25.72 35H12.28C7.16 35 3 30.84 3 25.72V12.28C3 9.81879 3.97771 7.45839 5.71805 5.71805C7.45839 3.97771 9.81879 3 12.28 3ZM11.96 6.2C10.4324 6.2 8.96727 6.80686 7.88707 7.88707C6.80686 8.96727 6.2 10.4324 6.2 11.96V26.04C6.2 29.224 8.776 31.8 11.96 31.8H26.04C27.5676 31.8 29.0327 31.1931 30.1129 30.1129C31.1931 29.0327 31.8 27.5676 31.8 26.04V11.96C31.8 8.776 29.224 6.2 26.04 6.2H11.96ZM27.4 8.6C27.9304 8.6 28.4391 8.81071 28.8142 9.18579C29.1893 9.56086 29.4 10.0696 29.4 10.6C29.4 11.1304 29.1893 11.6391 28.8142 12.0142C28.4391 12.3893 27.9304 12.6 27.4 12.6C26.8696 12.6 26.3609 12.3893 25.9858 12.0142C25.6107 11.6391 25.4 11.1304 25.4 10.6C25.4 10.0696 25.6107 9.56086 25.9858 9.18579C26.3609 8.81071 26.8696 8.6 27.4 8.6ZM19 11C21.1217 11 23.1566 11.8429 24.6569 13.3431C26.1571 14.8434 27 16.8783 27 19C27 21.1217 26.1571 23.1566 24.6569 24.6569C23.1566 26.1571 21.1217 27 19 27C16.8783 27 14.8434 26.1571 13.3431 24.6569C11.8429 23.1566 11 21.1217 11 19C11 16.8783 11.8429 14.8434 13.3431 13.3431C14.8434 11.8429 16.8783 11 19 11ZM19 14.2C17.727 14.2 16.5061 14.7057 15.6059 15.6059C14.7057 16.5061 14.2 17.727 14.2 19C14.2 20.273 14.7057 21.4939 15.6059 22.3941C16.5061 23.2943 17.727 23.8 19 23.8C20.273 23.8 21.4939 23.2943 22.3941 22.3941C23.2943 21.4939 23.8 20.273 23.8 19C23.8 17.727 23.2943 16.5061 22.3941 15.6059C21.4939 14.7057 20.273 14.2 19 14.2Z" fill="#FCFCFC"/>
</svg>
