<svg width="20" height="20" viewBox="0 0 20 20" fill="none" xmlns="http://www.w3.org/2000/svg">
<g clip-path="url(#clip0_105_1700)">
<path d="M19.9658 0.280909C19.8956 0.110923 19.7298 4.26137e-05 19.5458 0C1.90946 0 0.00036335 7.31093 0.00036335 10.4545C0.00036335 14.5327 3.10583 17.2727 7.72763 17.2727C13.5649 17.2727 14.7876 11.7182 15.444 8.73363C16.082 5.69561 17.6237 2.92151 19.8667 0.775441C19.9966 0.645725 20.0357 0.45064 19.9658 0.280909Z" fill="#30B336"/>
<path d="M0.45473 20.0001C0.203693 20.0001 0.000170231 19.7966 0.000170231 19.5455C0.000170231 16.8428 4.68652 8.17096 12.0747 4.59098C12.3006 4.48155 12.5725 4.57594 12.682 4.80188C12.7914 5.02782 12.697 5.29969 12.4711 5.40917C5.01017 9.02464 0.909248 17.421 0.909248 19.5456C0.909248 19.7966 0.705767 20.0001 0.45473 20.0001Z" fill="#237727"/>
</g>
<defs>
<clipPath id="clip0_105_1700">
<rect width="20" height="20" fill="white"/>
</clipPath>
</defs>
</svg>
