<svg width="20" height="20" viewBox="0 0 20 20" fill="none" xmlns="http://www.w3.org/2000/svg">
<g clip-path="url(#clip0_4043_101)">
<path d="M20.0001 0.278139C19.6019 3.50087 17.5571 4.84471 17.5571 4.84471C15.6326 4.79079 13.8865 5.81111 13.8865 5.81111L16.0308 5.84015L12.9366 8.43243C11.1324 8.54442 10.0831 9.32832 10.0831 9.32832L12.0034 9.27026L8.78899 12.7958C7.0843 13.0488 6.04324 13.7248 6.04324 13.7248H7.83918C4.0814 17.5614 1.75871 15.8484 1.75871 15.8484C0.887704 17.5199 1.32736 19.9837 1.32736 19.9837H0.0125483C0.0125483 19.9837 -0.83772 13.028 11.8873 5.35072C3.60027 9.0131 0.817194 14.741 0.817194 14.741C0.817194 14.741 -1.06584 11.4063 3.51732 5.91895L3.58783 7.60705C3.58783 7.60705 4.19753 6.56599 4.34685 4.97743C4.76162 4.52949 5.22201 4.0691 5.72802 3.60041C6.59073 2.79577 7.59861 2.14873 8.69359 1.63442C8.55672 2.2068 8.25809 3.20224 7.72304 3.84098C7.72304 3.84098 9.29086 3.01144 10.0955 1.06205C11.0163 0.738529 11.9702 0.497965 12.9242 0.327911C12.8288 0.7012 12.6297 1.29017 12.2481 1.8501C12.2481 1.8501 13.4468 1.09108 14.0192 0.162005C16.2133 -0.107593 18.341 -0.0246398 20.0001 0.278139Z" fill="#94CE49"/>
</g>
<defs>
<clipPath id="clip0_4043_101">
<rect width="20" height="19.9876" fill="white"/>
</clipPath>
</defs>
</svg>
