<svg width="88" height="76" viewBox="0 0 88 76" fill="none" xmlns="http://www.w3.org/2000/svg">
<g clip-path="url(#clip0_123_19)">
<path fill-rule="evenodd" clip-rule="evenodd" d="M33.2791 40.8765C30.9354 41.187 29.5423 41.7836 27.8992 43.1728C26.4979 44.3578 25.4859 45.9554 25.0065 47.7328C24.7688 48.6154 24.7442 48.8034 24.7401 49.9883C24.7319 51.8556 25.0638 53.1999 25.8505 54.5034C26.2685 55.1939 27.5755 56.4933 28.2352 56.8733C29.9643 57.8662 32.2179 58.2829 34.283 57.9847C35.8441 57.7599 37.0487 57.29 38.2657 56.4279C39.0524 55.8722 40.6913 54.2541 42.1705 52.5666C45.7639 48.4765 47.6528 46.4335 48.9927 45.1872C50.2957 43.9778 51.0209 43.5406 52.4386 43.1156C53.1188 42.9113 53.295 42.895 54.6348 42.8827L56.0935 42.8746L56.958 42.1268C57.4333 41.7141 57.8226 41.3382 57.8226 41.2892C57.8226 41.1584 55.2822 41.2728 53.9915 41.4608C51.783 41.7836 50.2711 42.2903 49.0828 43.1034C48.7059 43.3608 46.0303 46.1025 44.9772 47.312C44.7887 47.5244 44.756 47.5367 44.6044 47.4346C44.5142 47.3733 43.5554 46.4825 42.4737 45.461C39.0811 42.2453 38.8762 42.0778 37.6552 41.5098C36.7128 41.0726 35.9056 40.901 34.6313 40.8683C34.0208 40.852 33.4102 40.8561 33.275 40.8724L33.2791 40.8765ZM53.9997 43.5773C52.9754 43.7122 52.1272 43.9696 51.2053 44.415C49.5458 45.2158 48.3822 46.315 44.7887 50.4664C41.8181 53.8986 40.6381 55.198 39.7858 55.9539C37.2987 58.1767 35.5491 58.9122 33.0497 58.7978L31.9966 58.7487L31.0747 59.3698L30.1528 59.9909L31.1403 60.0154C33.5823 60.0767 36.5325 59.4842 38.1714 58.6057C38.9786 58.1726 39.2491 57.9234 41.265 55.7823C42.2852 54.6954 43.1539 53.8169 43.1908 53.8333C43.2276 53.8455 44.1741 54.7322 45.2968 55.7986C48.669 59.0062 49.2508 59.472 50.5292 59.9541C51.783 60.4281 52.0657 60.473 53.6678 60.469C55.0077 60.4649 55.2248 60.4404 55.9542 60.2442C57.1711 59.9173 57.9701 59.5905 58.7937 59.0797C61.6414 57.3146 63.2394 54.5156 63.2517 51.2672C63.2599 48.926 62.5469 46.9933 61.1825 45.6571C60.1417 44.6397 58.8428 43.9614 57.4006 43.6877C56.5606 43.5283 54.7823 43.467 53.9956 43.5733L53.9997 43.5773ZM36.0408 44.0718C36.9217 44.3905 37.6388 44.9257 38.9172 46.2128C40.7692 48.0761 42.4532 49.8943 42.4286 50.0047C42.3959 50.1558 39.835 52.9057 38.5402 54.1887C37.2618 55.4513 36.8316 55.7292 35.7376 56.007C34.2994 56.3666 32.5744 56.0887 31.1567 55.2715C30.4478 54.8629 29.2883 53.7393 28.8908 53.0773C28.5057 52.4358 28.1656 51.4103 28.0631 50.593C27.7476 48.0801 29.0834 45.8573 31.6975 44.5376C32.8489 43.9573 33.4758 43.8062 34.5944 43.847C35.291 43.8715 35.6228 43.9247 36.0408 44.0758V44.0718ZM54.6184 45.3057C56.9499 45.7879 58.8592 47.455 59.6091 49.6655C59.8016 50.2335 59.8303 50.4378 59.8303 51.3612C59.8303 52.2847 59.8016 52.493 59.6132 53.0569C59.2854 54.0376 58.8715 54.6545 57.9537 55.5616C57.2531 56.2522 57.0154 56.4279 56.3516 56.7548C55.3355 57.2533 54.4832 57.4657 53.4343 57.4821C51.9961 57.5066 50.939 57.0204 49.5663 55.7087C48.8124 54.9896 45.5755 51.6105 45.473 51.4348C45.4238 51.353 45.7475 50.9526 46.6203 50.0128C49.7097 46.6868 50.2588 46.172 51.2012 45.7021C52.16 45.224 53.4794 45.0769 54.6266 45.3139L54.6184 45.3057Z" fill="url(#paint0_linear_123_19)"/>
<path fill-rule="evenodd" clip-rule="evenodd" d="M44.002 0L0 76H88L44.002 0ZM44.002 2.45161L2.13065 74.7742H85.8735L44.002 2.45161Z" fill="black"/>
</g>
<defs>
<linearGradient id="paint0_linear_123_19" x1="54.1513" y1="38.9152" x2="30.164" y2="66.8029" gradientUnits="userSpaceOnUse">
<stop stop-color="#E55C29"/>
<stop offset="0.35" stop-color="#E58F29"/>
<stop offset="1" stop-color="#E52929"/>
</linearGradient>
<clipPath id="clip0_123_19">
<rect width="88" height="76" fill="white"/>
</clipPath>
</defs>
</svg>
