<svg width="38" height="38" viewBox="0 0 38 38" fill="none" xmlns="http://www.w3.org/2000/svg">
<path d="M14.3133 34.105C15.8333 34.5642 17.3692 34.8334 19 34.8334C23.1993 34.8334 27.2265 33.1652 30.1958 30.1959C33.1652 27.2266 34.8333 23.1993 34.8333 19C34.8333 16.9208 34.4238 14.8619 33.6281 12.9409C32.8324 11.0199 31.6661 9.27442 30.1958 7.80416C28.7256 6.3339 26.9801 5.16763 25.0591 4.37193C23.1382 3.57623 21.0793 3.16669 19 3.16669C16.9207 3.16669 14.8618 3.57623 12.9408 4.37193C11.0198 5.16763 9.27439 6.3339 7.80413 7.80416C4.83481 10.7735 3.16666 14.8008 3.16666 19C3.16666 25.7292 7.39416 31.5084 13.3633 33.7884C13.2208 32.5534 13.0783 30.5109 13.3633 29.1017L15.1842 21.28C15.1842 21.28 14.725 20.3617 14.725 18.905C14.725 16.72 16.0867 15.0892 17.6383 15.0892C19 15.0892 19.6333 16.0867 19.6333 17.3692C19.6333 18.7309 18.7308 20.6784 18.2717 22.5467C18.0025 24.0984 19.095 25.46 20.6783 25.46C23.4967 25.46 25.6817 22.4517 25.6817 18.2084C25.6817 14.4084 22.9583 11.8117 19.0475 11.8117C14.5825 11.8117 11.9542 15.1367 11.9542 18.6359C11.9542 19.9975 12.3975 21.375 13.1258 22.2775C13.2683 22.3725 13.2683 22.4992 13.2208 22.7367L12.7617 24.4625C12.7617 24.7317 12.5875 24.8267 12.3183 24.6367C10.2917 23.75 9.11999 20.8684 9.11999 18.5409C9.11999 13.5375 12.6667 8.99335 19.5067 8.99335C24.9533 8.99335 29.1967 12.9042 29.1967 18.0975C29.1967 23.5442 25.8242 27.9142 20.995 27.9142C19.4592 27.9142 17.955 27.0909 17.4167 26.125L16.3558 29.8775C15.9917 31.2392 14.9942 33.06 14.3133 34.1525V34.105Z" fill="#FCFCFC"/>
</svg>
