<svg width="118" height="30" viewBox="0 0 118 30" fill="none" xmlns="http://www.w3.org/2000/svg">
<g clip-path="url(#clip0_2039_43)">
<path d="M43.2667 29.1687C42.5351 29.034 41.7877 28.9468 41.0719 28.7566C39.2547 28.2731 37.7443 27.3457 36.8553 25.594C35.8012 23.5173 35.7933 19.4908 38.2556 17.4617C39.6244 16.3362 41.2213 15.7417 42.952 15.6466C45.2491 15.5198 47.5619 15.5515 49.8668 15.5198C50.0241 15.5198 50.1736 15.5198 50.3939 15.5198C50.1657 14.101 49.9219 12.7614 48.8992 11.7231C47.908 10.7085 46.6572 10.4866 45.312 10.5738C43.542 10.6927 42.1732 11.5091 41.2135 13.0151C41.1663 13.0943 41.1112 13.1657 41.0404 13.2608C39.6323 12.7456 38.232 12.2304 36.8003 11.6993C37.6341 10.0744 38.6961 8.7032 40.2223 7.72827C42.0788 6.54726 44.1477 6.24606 46.2875 6.30947C47.7507 6.34118 49.1588 6.59482 50.4883 7.21306C52.8325 8.31481 54.1699 10.225 54.8228 12.6822C55.1689 13.99 55.3105 15.3295 55.2948 16.677C55.2555 20.5212 55.2161 24.3654 55.1768 28.2017C55.1768 28.3286 55.1611 28.4633 55.1532 28.606C53.6585 28.606 52.1953 28.606 50.7007 28.606C50.6535 27.7499 50.6063 26.9177 50.5591 26.0775C50.5197 26.0537 50.4883 26.022 50.4489 25.9982C50.4411 26.0537 50.4411 26.1092 50.4096 26.1568C49.3633 27.956 47.7428 28.8121 45.7525 29.0736C45.6267 29.0895 45.5008 29.1291 45.3749 29.1529C44.6827 29.1687 43.9747 29.1687 43.2667 29.1687ZM50.4804 19.2847C50.4017 19.2689 50.3545 19.253 50.3073 19.253C48.6711 19.2609 47.0269 19.2055 45.3985 19.2926C44.5253 19.3402 43.6285 19.5384 42.8025 19.8316C41.654 20.2517 41.0797 21.3138 41.1505 22.5265C41.2135 23.6124 41.8821 24.413 43.0464 24.7935C43.9589 25.0946 44.9029 25.1343 45.8469 25.0233C47.3416 24.8489 48.5531 24.1514 49.442 22.9308C50.2129 21.8528 50.5591 20.6401 50.4804 19.2847Z" fill="#091F5B"/>
<path d="M105.885 29.1686C105.264 29.0656 104.642 28.9863 104.029 28.8436C99.828 27.9084 96.6026 24.4842 95.9025 20.2041C95.4698 17.5646 95.6036 14.9727 96.7364 12.5235C98.3648 9.00429 101.189 7.02273 104.957 6.43619C107.6 6.02402 110.165 6.37278 112.533 7.72024C115.601 9.46401 117.268 12.1827 117.843 15.6306C117.906 15.9952 117.953 16.3598 118.008 16.7244C118.008 17.3823 118.008 18.0481 118.008 18.706C117.929 19.2529 117.874 19.7998 117.764 20.3388C116.836 24.7299 114.295 27.6309 109.945 28.8119C109.292 28.9863 108.607 29.0497 107.939 29.1686C107.246 29.1686 106.57 29.1686 105.885 29.1686ZM100.552 17.7549C100.709 18.6109 100.764 19.4907 101.032 20.3071C101.842 22.7563 103.494 24.3098 106.09 24.6269C108.717 24.9439 110.873 24.0086 112.131 21.6229C113.595 18.8407 113.532 15.9794 111.754 13.3241C109.567 10.0506 104.697 9.86825 102.204 12.904C101.055 14.299 100.646 15.9635 100.552 17.7549Z" fill="#091F5B"/>
<path d="M65.844 29.1686C65.1281 29.0338 64.3965 28.9466 63.6885 28.7564C61.0847 28.051 59.0472 26.6005 57.8515 24.0879C57.82 24.0324 57.7964 23.969 57.7492 23.8501C59.1337 23.2318 60.5183 22.6136 61.9343 21.9874C62.0129 22.1063 62.0837 22.2093 62.1545 22.3124C63.8695 24.9043 66.7408 25.3402 69.1323 24.4445C69.9425 24.1433 70.5011 23.5727 70.5089 22.6136C70.5168 21.9557 70.2808 21.385 69.7065 21.0838C69.0536 20.7351 68.3613 20.4418 67.6533 20.2119C66.5441 19.8552 65.3956 19.6254 64.2943 19.2291C63.4368 18.92 62.5793 18.5395 61.8163 18.0481C59.0393 16.2488 58.2684 13.6886 59.2832 10.5499C59.8575 8.77437 61.1161 7.59336 62.8389 6.99097C65.9935 5.88922 69.1323 5.96849 72.1452 7.52203C73.514 8.22746 74.6232 9.24202 75.2132 10.7322C75.2447 10.8193 75.2761 10.9065 75.3155 11.0333C73.9703 11.6437 72.6487 12.2461 71.3192 12.8485C70.4932 11.2711 69.0693 10.7639 67.4881 10.637C66.788 10.5816 66.0564 10.7084 65.3563 10.859C64.7977 10.9779 64.3493 11.3583 64.0504 11.8735C63.5233 12.785 63.7043 13.752 64.6168 14.2752C65.2776 14.6477 66.0249 14.9093 66.7565 15.1233C67.8264 15.4403 68.9277 15.6226 69.9897 15.9476C72.1845 16.6293 73.868 17.9609 74.8199 20.1089C75.9999 22.78 75.2525 25.6255 72.9319 27.3852C71.5945 28.3997 70.0605 28.8753 68.4164 29.0655C68.2591 29.0814 68.1096 29.121 67.9601 29.1527C67.26 29.1686 66.552 29.1686 65.844 29.1686Z" fill="#091F5B"/>
<path d="M84.8026 29.1686C84.0868 29.0339 83.3552 28.9467 82.6472 28.7565C80.1298 28.0748 78.1317 26.6956 76.9124 24.3098C76.8416 24.1751 76.7786 24.0324 76.7 23.8501C78.1002 23.224 79.4926 22.6136 80.7906 22.035C81.357 22.6295 81.8369 23.2557 82.4348 23.7233C84.1733 25.0787 86.1243 25.1659 88.1303 24.4208C89.0664 24.0721 89.4833 23.3904 89.4676 22.5264C89.4519 21.8923 89.2001 21.3692 88.6573 21.0839C88.0122 20.743 87.3357 20.4577 86.6435 20.2278C85.1331 19.7206 83.5676 19.348 82.0808 18.7694C80.5861 18.1908 79.3904 17.1762 78.525 15.7733C77.2113 13.6332 77.5338 8.98051 81.0266 7.37149C84.779 5.64357 88.5157 5.8338 92.0321 8.12448C93.0155 8.7665 93.7549 9.66217 94.1876 10.7798C94.2191 10.8511 94.2348 10.9304 94.2741 11.0413C92.9368 11.6437 91.6231 12.2461 90.2543 12.8644C89.916 12.1114 89.3574 11.5882 88.6258 11.2316C87.5717 10.7084 86.4625 10.5261 85.3061 10.6371C84.8971 10.6767 84.4801 10.7956 84.0946 10.9541C83.5046 11.1999 83.0562 11.6199 82.8517 12.2461C82.5685 13.1022 82.7888 13.768 83.5361 14.2752C84.3149 14.8063 85.2117 15.0044 86.0928 15.2422C87.3908 15.591 88.7281 15.8763 89.971 16.3678C91.6309 17.0256 92.8817 18.2304 93.6684 19.8712C95.0844 22.8276 94.1954 25.9347 91.45 27.7261C90.1992 28.5425 88.8147 28.9308 87.3515 29.0973C87.1863 29.1131 87.021 29.1528 86.848 29.1766C86.1636 29.1686 85.487 29.1686 84.8026 29.1686Z" fill="#091F5B"/>
<path d="M29.5787 29.1687C29.0752 29.0815 28.5717 29.0181 28.0761 28.8912C25.1497 28.17 23.5607 26.0378 23.5292 22.7881C23.5135 21.0839 23.5292 19.3798 23.5213 17.6836C23.5213 15.6148 23.5213 13.5381 23.5213 11.4694C23.5213 11.3267 23.5213 11.184 23.5213 11.0097C22.302 11.0097 21.1299 11.0097 19.9341 11.0097C19.9341 9.60672 19.9341 8.24341 19.9341 6.84047C21.1141 6.84047 22.2863 6.84047 23.5056 6.84047C23.5135 6.67402 23.5292 6.55513 23.5292 6.42831C23.5292 5.6119 23.5449 4.78758 23.5213 3.97117C23.5135 3.66205 23.6 3.48767 23.8911 3.33707C25.2048 2.64749 26.2117 1.63293 26.9276 0.333032C26.9827 0.229991 27.022 0.119024 27.0692 0.00805664C27.4861 0.00805664 27.9109 0.00805664 28.3279 0.00805664C28.3357 2.09266 28.3357 4.17726 28.3436 6.26185C28.3436 6.42831 28.3436 6.60268 28.3436 6.82462C29.3427 6.82462 30.3103 6.82462 31.27 6.82462C32.2376 6.82462 33.2052 6.82462 34.1964 6.82462C34.1964 8.21963 34.1964 9.58295 34.1964 10.9938C32.2612 10.9938 30.326 10.9938 28.3357 10.9938C28.3357 11.1761 28.3357 11.3188 28.3357 11.4615C28.3357 14.7984 28.3279 18.1433 28.3436 21.4802C28.3436 21.9003 28.3829 22.3283 28.4773 22.7326C28.7291 23.8819 29.5157 24.5397 30.68 24.6666C31.5139 24.7538 32.2691 24.5715 32.9613 24.1117C33.0715 24.0404 33.1816 23.9691 33.3232 23.8739C33.9132 25.1025 34.5032 26.3232 35.0932 27.5596C34.0076 28.3126 32.8512 28.8437 31.5689 29.0894C31.4588 29.1132 31.3408 29.1449 31.2307 29.1766C30.68 29.1687 30.1293 29.1687 29.5787 29.1687Z" fill="#091F5B"/>
<path d="M9.12533 0.000113733C9.21973 0.0397449 9.31413 0.0793761 9.41639 0.111081C10.3368 0.388499 10.9189 1.14149 10.9111 2.10849C10.9032 3.32121 10.9504 4.54185 10.8245 5.74663C10.5335 8.49704 8.03186 10.8036 5.29426 10.9225C4.23226 10.9621 3.17026 10.9462 2.10826 10.9383C1.06986 10.9304 0.36186 10.3597 0.0865265 9.33722C0.0629265 9.26588 0.0235931 9.19454 -0.00787354 9.12321C-0.00787354 8.98846 -0.00787354 8.86164 -0.00787354 8.7269C0.0235931 8.63971 0.0629265 8.56045 0.0865265 8.47326C0.33826 7.4904 1.08559 6.88008 2.10039 6.86423C2.92639 6.84838 3.74453 6.85631 4.57053 6.85631C5.92359 6.85631 6.82826 5.94479 6.83613 4.58148C6.85186 3.72544 6.84399 2.88526 6.85186 2.03716C6.86759 1.09393 7.45759 0.356794 8.36226 0.103155C8.46453 0.0793761 8.55106 0.0318187 8.65333 -0.0078125C8.81066 0.000113733 8.96799 0.000113733 9.12533 0.000113733Z" fill="#EC514C"/>
<path d="M6.85186 14.2673C6.85186 13.7521 6.86759 13.2369 6.84399 12.7217C6.82826 12.4205 6.93839 12.2858 7.22159 12.1907C9.22759 11.4852 10.7223 10.1774 11.7135 8.28302C11.9101 7.91049 12.0281 7.50625 12.2091 7.12579C12.2641 7.01483 12.39 6.86423 12.4844 6.86423C13.6644 6.86423 14.8444 6.81667 16.0165 6.91971C17.0864 7.01483 17.7629 7.98183 17.6843 9.0915C17.6135 10.0981 16.7953 10.8987 15.7648 10.9304C14.9309 10.9542 14.0892 10.9383 13.2475 10.9383C11.8079 10.9462 10.9111 11.834 10.9111 13.2766C10.9111 14.085 10.9111 14.8856 10.9111 15.6941C10.9032 16.8592 10.0457 17.739 8.91293 17.7469C7.73293 17.7549 6.86759 16.9147 6.85186 15.7337C6.84399 15.2423 6.85186 14.7508 6.85186 14.2673Z" fill="#EC514C"/>
</g>
<defs>
<clipPath id="clip0_2039_43">
<rect width="118" height="29.1685" fill="white"/>
</clipPath>
</defs>
</svg>
